<svg xmlns="http://www.w3.org/2000/svg" width="22.078" height="22.119" viewBox="0 0 22.078 22.119">
  <path id="Icon_feather-phone-call" data-name="Icon feather-phone-call" d="M23.744,18.436v3.1a2.069,2.069,0,0,1-2.255,2.069,20.474,20.474,0,0,1-8.928-3.176,20.174,20.174,0,0,1-6.207-6.207,20.474,20.474,0,0,1-3.176-8.97A2.069,2.069,0,0,1,5.235,3h3.1a2.069,2.069,0,0,1,2.069,1.779,13.284,13.284,0,0,0,.724,2.907,2.069,2.069,0,0,1-.466,2.183L9.353,11.183a16.553,16.553,0,0,0,6.207,6.207l1.314-1.314a2.069,2.069,0,0,1,2.183-.466,13.284,13.284,0,0,0,2.907.724A2.069,2.069,0,0,1,23.744,18.436Z" transform="translate(-2.417 -2.25)" fill="none" stroke="#fff" stroke-linecap="round" stroke-linejoin="round" stroke-width="1.5"/>
</svg>
