<svg width="66" height="71" viewBox="0 0 66 71" fill="none" xmlns="http://www.w3.org/2000/svg">
<path d="M22.6553 25.8194C23.0203 27.4711 24.0215 28.886 25.3888 29.7926C25.7099 28.6088 26.2673 27.522 27.0067 26.5842C25.7018 25.8263 24.1741 25.5479 22.6553 25.8194Z" fill="#FFE5EC"/>
<path d="M27.7617 33.3535C27.9484 34.3314 28.3559 35.232 28.9322 35.9994C29.5086 35.232 29.9161 34.3314 30.1028 33.3535C29.2878 33.4599 28.5517 33.4565 27.7617 33.3535Z" fill="#FFE5EC"/>
<path d="M20.2454 26.7852C18.5079 27.9372 17.3594 29.9098 17.3594 32.1463C17.3594 37.1096 22.7605 40.1749 27.0069 37.7088C25.8797 36.2793 25.1748 34.5025 25.0853 32.5668C22.7324 31.4497 20.9389 29.3417 20.2454 26.7852Z" fill="#FFE5EC"/>
<path d="M27.7988 30.7591C28.5608 30.8953 29.3047 30.895 30.0654 30.7591C29.8648 29.851 29.4729 29.0139 28.9322 28.2939C28.3915 29.0139 27.9995 29.851 27.7988 30.7591Z" fill="#FFE5EC"/>
<path d="M28.9322 24.7662C30.7237 23.5139 32.9423 22.9234 35.2462 23.2241C34.6794 20.2543 32.0646 18.002 28.9322 18.002C25.7997 18.002 23.1849 20.2543 22.6182 23.2241C24.9241 22.9231 27.1422 23.5149 28.9322 24.7662Z" fill="#FFE5EC"/>
<path d="M32.4754 29.7926C33.8428 28.8859 34.844 27.4711 35.2089 25.8194C33.6873 25.5474 32.16 25.8278 30.8574 26.5843C31.597 27.522 32.1543 28.6087 32.4754 29.7926Z" fill="#FFE5EC"/>
<path d="M37.6188 26.7852C36.9251 29.3417 35.1318 31.4497 32.779 32.5668C32.6896 34.5025 31.9847 36.2793 30.8574 37.7088C35.1151 40.1814 40.505 37.0989 40.505 32.1463C40.5048 29.9098 39.3563 27.9372 37.6188 26.7852Z" fill="#FFE5EC"/>
<path d="M57.8356 28.2735C57.1754 12.6609 44.6266 0 28.9321 0C12.9789 0 0 13.2673 0 29.575C0 39.333 4.7484 48.6156 12.8586 54.167V70.7227H47.5771V57.864H56.5781V45.0061L65.5792 45.0051V39.988L57.8356 28.2735ZM63.0075 42.4336L54.0065 42.4346V55.2922H45.0054V68.1508H15.4304V52.7696C7.47982 47.9043 2.57181 39.0872 2.57181 29.575C2.57181 14.6854 14.3971 2.57181 28.9321 2.57181C43.4986 2.57181 55.0344 14.5619 55.2869 29.0818L63.0075 40.7611V42.4336Z" fill="#FFE5EC"/>
<path d="M52.7192 29.4795C52.6692 16.0606 41.9982 5.14355 28.932 5.14355C15.8149 5.14355 5.14355 16.1035 5.14355 29.575C5.14355 38.4234 9.82304 46.603 17.3558 50.9215L18.0022 51.292V65.5793H42.4337V52.7206H51.4347V39.863H59.3308L52.7206 29.8635L52.7192 29.4795ZM28.932 48.8631C17.942 48.8631 9.00113 39.9222 9.00113 28.9322C9.00113 17.9421 17.942 9.00113 28.932 9.00113C39.922 9.00113 48.8629 17.942 48.8629 28.932C48.8629 39.922 39.922 48.8631 28.932 48.8631Z" fill="#FFE5EC"/>
<path d="M28.9315 11.5732C19.3595 11.5732 11.5723 19.3605 11.5723 28.9323C11.5723 38.5042 19.3595 46.2915 28.9315 46.2915C38.5035 46.2915 46.2907 38.5043 46.2907 28.9323C46.2907 19.3604 38.5033 11.5732 28.9315 11.5732ZM34.075 41.1481C32.1635 41.1481 30.3906 40.5473 28.9315 39.5273C27.4724 40.5473 25.6995 41.1481 23.788 41.1481C18.8248 41.1481 14.787 37.1101 14.787 32.147C14.787 28.5596 16.8973 25.4565 19.9411 24.0114C20.1616 19.2428 24.1093 15.4308 28.9315 15.4308C33.7537 15.4308 37.7014 19.2428 37.9219 24.0114C40.9657 25.4565 43.076 28.5596 43.076 32.147C43.076 37.1102 39.038 41.1481 34.075 41.1481Z" fill="#FFE5EC"/>
</svg>
