<svg width="65" height="69" viewBox="0 0 65 69" fill="none" xmlns="http://www.w3.org/2000/svg">
<path fill-rule="evenodd" clip-rule="evenodd" d="M5.50366 15.5922H7.66814L7.9915 14.8641C7.85178 14.5658 7.72559 14.2614 7.61324 13.9517L5.50266 13.1393V11.5745C2.91472 11.6395 0.817828 13.7765 0.817828 16.3794V49.4451C0.817828 52.0886 2.98074 54.2515 5.62428 54.2515H22.2537V61.8879H14.9378C12.6835 61.8879 10.8389 63.3616 10.8389 65.1628V67.582C10.8389 68.0533 11.2232 68.4375 11.6944 68.4375H52.4628C52.934 68.4375 53.3182 68.0533 53.3182 67.582V65.1625C53.3182 63.3613 51.4738 61.8876 49.2194 61.8876H41.9034V54.2513H58.5329C61.1764 54.2513 63.3393 52.0883 63.3393 49.4448V16.3792C63.3393 13.7765 61.2424 11.6395 58.6545 11.5743V13.1391L56.5439 13.9516C56.4316 14.2612 56.3054 14.5656 56.1657 14.8639L56.489 15.5921H58.6535C59.0202 15.5921 59.3201 15.892 59.3201 16.2586V46.155H4.8371V16.2588C4.8371 15.8922 5.13709 15.5922 5.50366 15.5922ZM61.8123 3.27131C60.9315 3.27131 60.1643 3.75708 59.7636 4.47524H54.1345L54.3629 3.96111L52.412 2.01021L50.7567 2.74534C49.9689 2.26029 49.1093 1.90342 48.2094 1.68927L47.5592 0H44.8002L44.1499 1.68927C43.2499 1.90342 42.3902 2.26029 41.6024 2.74534L39.9471 2.01021L37.9962 3.96111L38.7313 5.61629C38.2462 6.40404 37.8894 7.26379 37.6753 8.16388L35.9863 8.81404V11.5731L37.6751 12.2231C37.8894 13.1232 38.2462 13.9832 38.7313 14.7711L37.9964 16.4259L39.9473 18.3768L41.6026 17.6416C42.3903 18.1267 43.2499 18.4835 44.1499 18.6977L44.8002 20.387H45.039V29.7375H39.4662V27.9065H42.4052V25.6253H39.4662V24.9117C39.4662 24.3372 39.1219 23.8393 38.6294 23.6141V20.5469H36.3482V23.4859H35.0225V20.5469H32.7412V23.4859H31.4155V20.5469H29.1343V23.4859H27.8216L27.8042 20.5425L25.5317 20.5514L25.5497 23.6041C25.0453 23.8242 24.6905 24.3285 24.6905 24.9117V25.6253H21.7516V27.9065H24.6905V29.7375H19.1133V20.387H19.3565L20.0068 18.6977C20.9068 18.4835 21.7664 18.1267 22.5541 17.6416L24.2095 18.3768L26.1605 16.4259L25.4255 14.7711C25.9109 13.9832 26.2676 13.1232 26.4817 12.2231L28.1706 11.5731V8.81389L26.4816 8.16374C26.2675 7.26364 25.9106 6.4039 25.4254 5.61615L26.1605 3.96096L24.2096 2.01007L22.5543 2.7452C21.7665 2.26015 20.9069 1.90328 20.007 1.68912L19.3568 0H16.5978L15.9476 1.68927C15.0477 1.90342 14.1879 2.26029 13.4002 2.74534L11.7449 2.01021L9.79398 3.96096L10.0224 4.4751H4.39326C3.99261 3.75693 3.2254 3.27117 2.34455 3.27117C1.04966 3.27117 0 4.32083 0 5.61572C0 6.91062 1.04966 7.96028 2.34455 7.96028C3.22526 7.96028 3.99247 7.47452 4.39326 6.75635H9.93769C9.74322 7.21075 9.58752 7.6814 9.47275 8.16374L7.78405 8.81375V11.5728L9.47318 12.2231C9.68733 13.123 10.0442 13.9826 10.5293 14.7704L9.79412 16.4257L11.745 18.3766L13.3998 17.6416C14.1877 18.1268 15.0477 18.4837 15.9478 18.6978L16.5978 20.3867H16.8412V30.8734C16.8412 31.5009 17.3499 32.0096 17.9774 32.0096H24.6908V33.8406H21.7519V36.1219H24.6908V36.8353C24.6908 37.4195 25.0468 37.9245 25.5526 38.1441L25.532 41.1957L27.8044 41.2045L27.8243 38.261H29.1346V41.1999H31.4158V38.261H32.7415V41.1999H35.0227V38.261H36.3484V41.1999H38.6297V38.1328C39.1222 37.9075 39.4665 37.4098 39.4665 36.8352V36.1217H42.4054V33.8405H39.4665V32.0095H46.1799C46.8074 32.0095 47.3161 31.5008 47.3161 30.8733L47.3205 20.3865H47.5595L48.2095 18.6977C49.1097 18.4835 49.9696 18.1267 50.7575 17.6415L52.4123 18.3765L54.3632 16.4256L53.628 14.7702C54.1131 13.9825 54.47 13.1229 54.6841 12.2229L56.3732 11.5726V8.81389L54.6846 8.16388C54.5698 7.68154 54.4141 7.21075 54.2196 6.75649H59.764C60.1647 7.47466 60.9319 7.96042 61.8127 7.96042C63.1076 7.96042 64.1573 6.91076 64.1573 5.61587C64.1569 4.32097 63.1072 3.27131 61.8123 3.27131ZM13.1657 10.1935C13.1657 7.53582 15.3197 5.38175 17.9774 5.38175C20.635 5.38175 22.7891 7.53582 22.7891 10.1935C22.7891 12.8511 20.635 15.0051 17.9774 15.0051C15.3197 15.0051 13.1657 12.8511 13.1657 10.1935ZM34.8586 33.6536H29.2985V28.0936H34.8586V33.6536ZM46.1796 15.0051C43.522 15.0051 41.3679 12.851 41.3679 10.1935C41.3679 7.53582 43.522 5.38175 46.1796 5.38175C48.8373 5.38175 50.9914 7.53582 50.9914 10.1935C50.9914 12.8511 48.8373 15.0051 46.1796 15.0051ZM33.705 11.5729V13.1393L35.8152 13.9514C35.9277 14.2612 36.0539 14.5659 36.1937 14.8645L35.8705 15.5921H28.2866L27.9634 14.8645C28.1031 14.5659 28.2295 14.2612 28.342 13.9514L30.4521 13.1393V11.5729H33.705Z" fill="#D7E3F8"/>
</svg>
