<svg width="71" height="82" viewBox="0 0 71 82" fill="none" xmlns="http://www.w3.org/2000/svg">
<path fill-rule="evenodd" clip-rule="evenodd" d="M31.08 29.2796C30.7876 29.5103 30.6322 29.8307 30.6322 30.2031V34.9566H30.001C29.3531 34.9566 28.8247 35.4851 28.8247 36.1329V50.3727H8.7195V37.8007C8.7195 37.0977 8.14958 36.528 7.44663 36.528C6.74368 36.528 6.17376 37.0979 6.17376 37.8007V50.3727H5.01192C2.43411 50.3727 0.315349 48.3414 0.206505 45.7658C-0.0126942 40.5734 -0.111964 35.5212 0.187356 30.0856C0.423856 27.0089 1.11219 25.8526 3.04366 24.7203C5.00084 23.5727 8.89334 22.7443 11.643 22.0002L12.0369 21.8905C13.1028 21.5936 14.1528 21.817 15.0059 22.5219C15.6467 23.0515 16.3525 23.4279 17.0859 23.652L15.6099 38.4113L18.7286 42.8754L21.8473 38.4113L20.3713 23.652C21.1045 23.4281 21.8103 23.0515 22.4511 22.5219C23.3041 21.8171 24.3542 21.5937 25.4201 21.8905L25.814 22.0002C28.5637 22.7443 32.4562 23.5727 34.4133 24.7203C36.3448 25.8527 37.0331 27.0089 37.2696 30.0856L37.2814 30.3039L32.0821 29.0594C31.72 28.9728 31.3721 29.0492 31.0798 29.2798L31.08 29.2796ZM18.7288 19.4244C28.2101 18.8095 30.714 0 18.7288 0C6.74351 0 9.24742 18.8095 18.7288 19.4244ZM32.9838 34.9565H37.0046C40.6752 34.9565 44.2437 35.8566 47.4365 37.5476C44.965 35.4258 41.9724 33.8444 38.6021 33.0376L32.9838 31.6927V34.9563V34.9565ZM37.6274 59.2676C37.3145 58.8013 37.3753 58.1787 37.7722 57.7812L41.2865 54.2675C41.6837 53.8699 42.306 53.8093 42.7728 54.1217L44.7918 55.4762L46.8057 54.6407L47.2757 52.2573C47.3844 51.706 47.8676 51.3084 48.4293 51.3084H49.7383V41.8981C46.1488 38.9353 41.6753 37.3082 37.0044 37.3082H31.1761V60.7375H37.0044C37.5569 60.7375 38.1068 60.758 38.6535 60.7985L37.6273 59.2679L37.6274 59.2676ZM64.8239 37.308C60.153 37.308 55.6795 38.9352 52.0899 41.898V51.3082H53.399C53.9607 51.3082 54.4439 51.7058 54.5525 52.2571L55.0228 54.6406L57.0367 55.476L59.0557 54.1215C59.5221 53.8091 60.1446 53.8698 60.5417 54.2673L64.056 57.7811C64.4532 58.1787 64.514 58.8012 64.2011 59.2674L63.1748 60.798C63.7215 60.7577 64.2715 60.737 64.8239 60.737H70.6521V37.308H64.8239ZM68.8447 34.9565V31.6928L63.2264 33.0378C59.8561 33.8445 56.8637 35.426 54.392 37.5477C57.5848 35.8568 61.1535 34.9566 64.8239 34.9566L68.8447 34.9565ZM62.6104 65.4855L64.6632 65.8903V68.9272L62.6104 69.332C62.2246 69.408 61.9023 69.6721 61.7518 70.0347L60.4335 73.2125C60.283 73.576 60.3242 73.9906 60.5434 74.3176L61.7098 76.0574L59.5626 78.2044L57.8233 77.0379C57.4963 76.8192 57.0814 76.7778 56.7181 76.9285L53.5406 78.2466C53.1773 78.3971 52.9134 78.7194 52.8377 79.1047L52.4329 81.158H49.3962L48.9913 79.1047C48.9154 78.7194 48.6514 78.3971 48.2881 78.2466L45.1109 76.9285C44.7474 76.7778 44.3326 76.8192 44.0055 77.0379L42.2662 78.2044L40.1192 76.0574L41.2856 74.3176C41.5048 73.9904 41.546 73.576 41.3951 73.2125L40.0772 70.0347C39.9264 69.6721 39.6041 69.408 39.2186 69.332L37.1658 68.9272V65.8903L39.2186 65.4855C39.6041 65.4102 39.9264 65.1462 40.0772 64.7827L41.3951 61.6057C41.546 61.2422 41.5048 60.8269 41.2856 60.4998L40.1192 58.7608L42.2662 56.6137L44.0055 57.7796C44.3326 57.9989 44.7474 58.0403 45.1109 57.8898L48.2884 56.5717C48.6515 56.421 48.9156 56.0989 48.9915 55.7127L49.3963 53.6603H52.433L52.8378 55.7127C52.9136 56.0989 53.1775 56.4212 53.5408 56.5717L56.7182 57.8898C57.0816 58.0403 57.4966 57.9991 57.8235 57.7796L59.5628 56.6137L61.7099 58.7608L60.5436 60.4998C60.3244 60.8269 60.2832 61.2422 60.4337 61.6057L61.7519 64.7827C61.9024 65.1462 62.2248 65.4101 62.6106 65.4855H62.6104ZM58.1777 67.4087C58.1777 63.408 54.9149 60.1452 50.9143 60.1452C46.9136 60.1452 43.6508 63.4082 43.6508 67.4087C43.6508 71.4092 46.9137 74.6722 50.9143 74.6722C54.9148 74.6722 58.1777 71.4092 58.1777 67.4087Z" fill="#D7E3F8"/>
</svg>
