<svg width="71" height="55" viewBox="0 0 71 55" fill="none" xmlns="http://www.w3.org/2000/svg">
<path d="M39.7725 20.5673L42.7618 23.5566L50.6282 15.6738L47.6546 12.7002L39.7725 20.5673Z" fill="#E4EAF4"/>
<path d="M38.2646 25.0633L40.4488 24.5584L38.7696 22.8799L38.2646 25.0633Z" fill="#E4EAF4"/>
<path d="M31.9844 30.4766H33.4915V31.9837H31.9844V30.4766Z" fill="#E4EAF4"/>
<path d="M17.5827 37.4752V9.87988H0V54.2259L10.8008 46.4621C10.9984 46.3117 11.2378 46.2266 11.4857 46.2175H51.0736V38.682H18.7595C18.1047 38.6663 17.5821 38.1306 17.5827 37.4752Z" fill="#E4EAF4"/>
<path d="M49.3145 11.0436L52.2848 14.014L52.8349 13.4625L49.8659 10.4941L49.3145 11.0436Z" fill="#E4EAF4"/>
<path d="M31.9844 3.85156H33.4915V5.35865H31.9844V3.85156Z" fill="#E4EAF4"/>
<path d="M54.9254 6.52605V5.69336H35.8356V6.52605C35.8356 7.17363 35.3777 7.70281 34.7302 7.70281H33.8262V28.1323H34.7302C35.3777 28.1323 35.8356 28.7223 35.8356 29.3698V30.1417H54.9254V29.3698C54.9254 28.7223 55.3833 28.1323 56.0309 28.1323H56.9349V7.70281H56.0309C55.3833 7.70281 54.9254 7.17363 54.9254 6.52605ZM54.5866 15.0257L43.6824 25.9527C43.4574 26.1771 43.1748 26.3347 42.8654 26.406L36.964 27.7705C36.5702 27.8614 36.1568 27.7437 35.8703 27.4572C35.5844 27.1714 35.466 26.7579 35.5576 26.3635L36.9215 20.4627C36.9934 20.1533 37.1504 19.8707 37.3748 19.6464L48.3025 8.74155C49.1679 7.88008 50.5664 7.88073 51.4311 8.74286L54.5853 11.897C55.4474 12.7618 55.4481 14.1609 54.5866 15.0257Z" fill="#E4EAF4"/>
<path d="M57.2695 3.85156H58.7766V5.35865H57.2695V3.85156Z" fill="#E4EAF4"/>
<path d="M19.9277 0V36.3376H59.5157C59.759 36.3317 59.9984 36.4024 60.1999 36.5397L71.0007 44.2609V0H19.9277ZM61.1215 6.52614C61.1176 7.17634 60.5897 7.70159 59.9395 7.7029H59.2795V28.1323H59.9395C60.6008 28.1624 61.1222 28.7073 61.1215 29.3699V33.1959C61.1176 33.504 60.99 33.797 60.7683 34.0103C60.5459 34.2228 60.247 34.338 59.9395 34.3282H56.0312C55.7309 34.3347 55.4418 34.217 55.2325 34.0017C55.0232 33.7872 54.912 33.4955 54.9257 33.1959V32.4862H35.8359V33.1959C35.8496 33.4955 35.7384 33.7872 35.5291 34.0017C35.3198 34.217 35.0307 34.3347 34.7304 34.3282H30.8221C30.5146 34.338 30.2157 34.2228 29.9933 34.0103C29.7716 33.797 29.644 33.504 29.6401 33.1959V29.3699C29.6394 28.7073 30.1608 28.1624 30.8221 28.1323H31.4821V7.7029H30.8221C30.1719 7.70159 29.644 7.17634 29.6401 6.52614V2.69955C29.6434 2.04608 30.1686 1.51625 30.8221 1.50709H34.7304C35.378 1.50709 35.8359 2.05262 35.8359 2.69955V3.34909H54.9257V2.69955C54.9257 2.05262 55.3836 1.50709 56.0312 1.50709H59.9395C60.593 1.51625 61.1182 2.04608 61.1215 2.69955V6.52614Z" fill="#E4EAF4"/>
<path d="M57.2695 30.4766H58.7766V31.9837H57.2695V30.4766Z" fill="#E4EAF4"/>
</svg>
