<svg width="69" height="69" viewBox="0 0 69 69" fill="none" xmlns="http://www.w3.org/2000/svg">
<path fill-rule="evenodd" clip-rule="evenodd" d="M26.5165 41.1901L22.1913 38.6839C21.9488 38.5627 21.7871 38.2797 21.7871 37.9967V24.7384L33.6711 31.6101V36.0969C30.4778 36.3799 27.7695 38.401 26.5165 41.1901ZM35.288 36.0969V31.6101L47.172 24.7384V37.9967C47.172 38.2797 47.0103 38.5627 46.7678 38.6839L42.4831 41.1901C41.1896 38.401 38.4813 36.3799 35.288 36.0969ZM34.4796 30.1953L22.5955 23.3236L34.0753 16.6945C34.3179 16.5732 34.6412 16.5732 34.8838 16.6945L46.3636 23.3236L34.4796 30.1953Z" fill="#FFD7E1"/>
<path fill-rule="evenodd" clip-rule="evenodd" d="M34.4796 52.3063C30.397 52.3063 27.042 48.9513 27.042 44.8687C27.042 40.7456 30.397 37.3906 34.4796 37.3906C38.6026 37.3906 41.9576 40.7456 41.9576 44.8687C41.9576 48.9513 38.6026 52.3063 34.4796 52.3063ZM31.6501 47.5365C31.5692 47.5365 31.4884 47.4961 31.4075 47.4961C31.2054 47.4152 31.0033 47.2535 30.9225 47.011L30.2353 45.3537C30.0736 44.9091 30.2353 44.4644 30.68 44.3028C31.0842 44.1006 31.5692 44.3028 31.7309 44.707L32.0543 45.5154L37.4304 42.2817C37.7942 42.0796 38.3197 42.2008 38.5218 42.5646C38.7643 42.9688 38.643 43.4539 38.2793 43.6964L32.0947 47.4152C31.9735 47.4961 31.8118 47.5365 31.6501 47.5365Z" fill="#FFD7E1"/>
<path fill-rule="evenodd" clip-rule="evenodd" d="M49.3954 63.1796H19.5641C20.0087 62.0074 20.2513 60.7543 20.2513 59.4608C20.2513 59.0566 20.2109 58.6524 20.1704 58.2481H48.7891C48.7486 58.6524 48.7486 59.0566 48.7486 59.4608C48.7486 60.7543 48.9912 62.0074 49.3954 63.1796ZM5.78027 49.2745V19.6049C6.91208 20.0496 8.16516 20.2517 9.45866 20.2517C9.86287 20.2517 10.2671 20.2517 10.6713 20.1708V48.7086C10.2671 48.6682 9.86287 48.6278 9.45866 48.6278C8.16516 48.6278 6.91208 48.8703 5.78027 49.2745ZM19.5641 5.74023H49.3954C48.9912 6.91247 48.7486 8.16554 48.7486 9.45904C48.7486 9.86326 48.7486 10.2675 48.7891 10.6313H20.1704C20.2109 10.2675 20.2513 9.86326 20.2513 9.45904C20.2513 8.16554 20.0087 6.91247 19.5641 5.74023ZM63.2196 19.6049V49.2745C62.0474 48.8703 60.8348 48.6278 59.5413 48.6278C59.137 48.6278 58.6924 48.6682 58.2882 48.7086V20.1708C58.6924 20.2517 59.137 20.2517 59.5413 20.2517C60.8348 20.2517 62.0474 20.0496 63.2196 19.6049Z" fill="#FFD7E1"/>
<path fill-rule="evenodd" clip-rule="evenodd" d="M9.4587 68.8787C4.24429 68.8787 0 64.6345 0 59.4605C0 54.246 4.24429 50.0018 9.4587 50.0018C14.6731 50.0018 18.877 54.246 18.877 59.4605C18.877 64.6345 14.6731 68.8787 9.4587 68.8787ZM9.4587 63.6239C7.15466 63.6239 5.25483 61.7645 5.25483 59.4605C5.25483 57.116 7.15466 55.2566 9.4587 55.2566C11.7627 55.2566 13.6221 57.116 13.6221 59.4605C13.6221 61.7645 11.7627 63.6239 9.4587 63.6239ZM9.4587 56.8735C8.04394 56.8735 6.8717 58.0053 6.8717 59.42C6.8717 60.8752 8.04394 62.007 9.4587 62.007C10.8735 62.007 12.0053 60.8752 12.0053 59.42C12.0457 58.0053 10.8735 56.8735 9.4587 56.8735ZM59.5413 63.6239C57.2373 63.6239 55.3374 61.7645 55.3374 59.4605C55.3374 57.116 57.2373 55.2566 59.5413 55.2566C61.8453 55.2566 63.7452 57.116 63.7452 59.4605C63.7452 61.7645 61.8453 63.6239 59.5413 63.6239ZM59.5413 56.8735C58.1265 56.8735 56.9543 58.0053 56.9543 59.42C56.9543 60.8752 58.1265 62.007 59.5413 62.007C60.9561 62.007 62.1283 60.8752 62.1283 59.42C62.1283 58.0053 60.9561 56.8735 59.5413 56.8735ZM59.5413 13.6626C57.2373 13.6626 55.3374 11.8032 55.3374 9.4587C55.3374 7.15466 57.2373 5.29526 59.5413 5.29526C61.8453 5.29526 63.7452 7.15466 63.7452 9.4587C63.7452 11.8032 61.8453 13.6626 59.5413 13.6626ZM59.5413 6.87171C58.1265 6.87171 56.9543 8.04394 56.9543 9.4587C56.9543 10.8735 58.1265 12.0457 59.5413 12.0457C60.9561 12.0457 62.1283 10.8735 62.1283 9.4587C62.1283 8.04394 60.9561 6.87171 59.5413 6.87171ZM9.4587 13.6626C7.15466 13.6626 5.25483 11.8032 5.25483 9.4587C5.25483 7.15466 7.15466 5.29526 9.4587 5.29526C11.7627 5.29526 13.6221 7.15466 13.6221 9.4587C13.6221 11.8032 11.7627 13.6626 9.4587 13.6626ZM9.4587 6.87171C8.04394 6.87171 6.8717 8.04394 6.8717 9.4587C6.8717 10.8735 8.04394 12.0457 9.4587 12.0457C10.8735 12.0457 12.0053 10.8735 12.0053 9.4587C12.0053 8.04394 10.8735 6.87171 9.4587 6.87171ZM59.5413 68.8787C54.3269 68.8787 50.0826 64.6345 50.0826 59.4605C50.0826 54.246 54.3269 50.0018 59.5413 50.0018C64.7557 50.0018 69 54.246 69 59.4605C69 64.6345 64.7557 68.8787 59.5413 68.8787ZM59.5413 18.9174C54.3269 18.9174 50.0826 14.6731 50.0826 9.4587C50.0826 4.24429 54.3269 0 59.5413 0C64.7557 0 69 4.24429 69 9.4587C69 14.6731 64.7557 18.9174 59.5413 18.9174ZM9.4587 18.9174C4.24429 18.9174 0 14.6731 0 9.4587C0 4.24429 4.24429 0 9.4587 0C14.6731 0 18.877 4.24429 18.877 9.4587C18.877 14.6731 14.6731 18.9174 9.4587 18.9174Z" fill="#FFD7E1"/>
</svg>
