<svg xmlns="http://www.w3.org/2000/svg" width="20.002" height="20" viewBox="0 0 20.002 20">
  <path id="Icon_ionic-ios-call" data-name="Icon ionic-ios-call" d="M23.914,20.163A16.8,16.8,0,0,0,20.4,17.815c-1.052-.505-1.437-.495-2.182.042-.62.448-1.021.864-1.734.708a10.343,10.343,0,0,1-3.483-2.577A10.269,10.269,0,0,1,10.428,12.5c-.151-.719.266-1.114.708-1.734.536-.745.552-1.13.042-2.182A16.468,16.468,0,0,0,8.83,5.079c-.765-.765-.937-.6-1.359-.448a7.733,7.733,0,0,0-1.244.661A3.754,3.754,0,0,0,4.732,6.87c-.3.64-.64,1.833,1.109,4.947a27.6,27.6,0,0,0,4.853,6.472h0l.005.005.005.005h0a27.709,27.709,0,0,0,6.472,4.853c3.114,1.75,4.306,1.406,4.947,1.109A3.69,3.69,0,0,0,23.7,22.766a7.733,7.733,0,0,0,.661-1.244C24.513,21.1,24.684,20.928,23.914,20.163Z" transform="translate(-4.49 -4.502)"/>
</svg>
