<svg xmlns="http://www.w3.org/2000/svg" width="21.999" height="21.999" viewBox="0 0 21.999 21.999">
  <path id="Icon_ionic-logo-whatsapp" data-name="Icon ionic-logo-whatsapp" d="M13.449,2.25a10.758,10.758,0,0,0-10.8,10.716A10.606,10.606,0,0,0,4.2,18.5L2.25,24.249l5.979-1.9a10.818,10.818,0,0,0,16.02-9.383A10.758,10.758,0,0,0,13.449,2.25Zm5.37,14.786a2.79,2.79,0,0,1-1.91,1.231c-.506.027-.521.393-3.282-.807a11.268,11.268,0,0,1-4.553-4.305,5.3,5.3,0,0,1-1.019-2.87A3.06,3.06,0,0,1,9.106,8.039a1.058,1.058,0,0,1,.748-.315c.217,0,.358-.006.519,0s.4-.034.611.522.709,1.923.773,2.062a.5.5,0,0,1,.005.48,1.876,1.876,0,0,1-.293.446c-.144.155-.3.346-.432.464s-.293.274-.142.553A8.264,8.264,0,0,0,12.358,14.2a7.535,7.535,0,0,0,2.165,1.44c.271.148.432.131.6-.046s.719-.773.913-1.04.376-.215.626-.114,1.579.813,1.85.96.451.222.516.339A2.268,2.268,0,0,1,18.819,17.036Z" transform="translate(-2.25 -2.25)"/>
</svg>
