<svg xmlns="http://www.w3.org/2000/svg" width="26.668" height="20.001" viewBox="0 0 26.668 20.001">
  <path id="Icon_awesome-envelope" data-name="Icon awesome-envelope" d="M26.163,11.1a.314.314,0,0,1,.505.245V22a2.5,2.5,0,0,1-2.5,2.5H2.5A2.5,2.5,0,0,1,0,22V11.355a.312.312,0,0,1,.505-.245c1.167.906,2.714,2.057,8.026,5.917,1.1.8,2.953,2.49,4.8,2.479,1.859.016,3.75-1.708,4.808-2.479C23.454,13.167,25,12.011,26.163,11.1ZM13.334,17.834c1.208.021,2.948-1.521,3.823-2.156,6.912-5.016,7.438-5.453,9.032-6.7a1.246,1.246,0,0,0,.479-.984V7a2.5,2.5,0,0,0-2.5-2.5H2.5A2.5,2.5,0,0,0,0,7v.99a1.254,1.254,0,0,0,.479.984c1.594,1.245,2.12,1.688,9.032,6.7C10.386,16.313,12.126,17.855,13.334,17.834Z" transform="translate(0 -4.5)"/>
</svg>
